<?xml version="1.0" standalone="no"?>
<!DOCTYPE svg PUBLIC "-//W3C//DTD SVG 20010904//EN"
 "http://www.w3.org/TR/2001/REC-SVG-20010904/DTD/svg10.dtd">
<svg version="1.0" xmlns="http://www.w3.org/2000/svg"
 width="512.000000pt" height="512.000000pt" viewBox="0 0 512.000000 512.000000"
 preserveAspectRatio="xMidYMid meet">
<metadata>
Created by potrace 1.11, written by Peter Selinger 2001-2013
</metadata>
<g transform="translate(0.000000,512.000000) scale(0.100000,-0.100000)"
fill="#000000" stroke="none">
<path d="M0 2560 l0 -2560 2560 0 2560 0 0 2560 0 2560 -2560 0 -2560 0 0
-2560z m1862 1222 c86 -229 277 -736 424 -1127 146 -390 270 -714 274 -718 4
-4 102 246 218 555 117 310 308 820 426 1133 l214 570 411 3 411 2 0 -1640 0
-1640 -340 0 -340 0 0 543 c0 298 4 650 10 782 20 474 29 729 26 732 -2 3
-310 -796 -647 -1679 l-144 -378 -245 0 -245 0 -125 328 c-68 180 -160 419
-203 532 -43 113 -98 257 -122 320 -24 63 -76 198 -115 300 -39 102 -97 255
-130 340 -98 260 -92 262 -85 -15 4 -132 11 -323 16 -425 5 -102 9 -454 9
-782 l0 -598 -340 0 -340 0 0 1640 0 1640 413 0 412 0 157 -418z"/>
</g>
</svg>
